#!OML:ASF H:\Pregnant\Project 1\Capture day 1\Session 1\femalepreg.ASF
:FULLY-SPECIFIED
:DEGREES
515
root 6.81437 15.6947 25.0382 52.727 -87.0878 -36.3844
lowerback -19.2685 -1.6017 -3.66539
upperback -8.81177 -2.12601 1.85073
thorax 1.45933 -1.18661 3.6095
lowerneck -15.0848 11.2857 13.7803
upperneck 28.3684 14.8027 -8.74033
head 13.9227 6.73311 -3.18905
rclavicle 1.13618e-014 -2.16303e-014
rhumerus -12.4426 -28.7046 -52.4623
rradius 149.919
rwrist -37.7279
rhand -45.0266 -29.9881
rfingers 7.12502
rthumb -17.8092 -59.1926
lclavicle 1.13618e-014 -2.16303e-014
lhumerus -50.391 15.5992 54.5753
lradius 132.783
lwrist 32.6311
lhand -47.8805 -51.7151
lfingers 7.12502
lthumb -20.5535 -22.7831
rfemur -22.2933 20.3394 14.4895
rtibia 26.3776
rfoot -15.1662 -20.1805
rtoes -13.9373
lfemur 0 0 0
ltibia 0
lfoot 0 0
ltoes 0
516
root 6.8099 15.6922 25.0364 53.5956 -87.0897 -37.3754
lowerback -19.3581 -1.57675 -3.62092
upperback -8.70389 -2.08901 1.83684
thorax 1.6168 -1.17091 3.573
lowerneck -15.2274 11.2173 13.729
upperneck 28.462 14.6824 -8.67464
head 13.9647 6.67764 -3.17453
rclavicle -2.50308e-014 1.27455e-014
rhumerus -13.6618 -26.9383 -53.154
rradius 149.834
rwrist -38.063
rhand -44.4657 -30.7728
rfingers 7.12502
rthumb -17.2695 -60.0254
lclavicle -2.50308e-014 1.27455e-014
lhumerus -50.7264 14.4799 56.4974
lradius 131.404
lwrist 32.7316
lhand -48.0905 -51.5198
lfingers 7.12502
lthumb -20.7554 -22.6098
rfemur -22.1231 20.3114 14.5956
rtibia 26.3417
rfoot -15.1706 -20.1031
rtoes -13.9802
lfemur 0 0 0
ltibia 0
lfoot 0 0
ltoes 0
517
root 6.80542 15.6897 25.0349 54.5691 -87.0943 -38.4673
lowerback -19.4424 -1.54484 -3.57835
upperback -8.6014 -2.04362 1.82969
thorax 1.76525 -1.1507 3.54693
lowerneck -15.3863 11.143 13.6447
upperneck 28.5711 14.5563 -8.59072
head 14.0112 6.61766 -3.14836
rclavicle -2.97129e-015 2.11209e-014
rhumerus -14.9148 -25.1063 -53.847
rradius 149.747
rwrist -38.1796
rhand -43.8902 -31.5939
rfingers 7.12502
rthumb -16.7155 -60.8943
lclavicle -2.97129e-015 2.11209e-014
lhumerus -51.0579 13.3485 58.4119
lradius 129.99
lwrist 32.8934
lhand -48.3294 -51.3634
lfingers 7.12502
lthumb -20.9849 -22.4786
rfemur -21.9585 20.292 14.6991
rtibia 26.3044
rfoot -15.1713 -20.0307
rtoes -14.0289
lfemur 0 0 0
ltibia 0
lfoot 0 0
ltoes 0
518
root 6.80105 15.6873 25.0335 55.6048 -87.1008 -39.6163
lowerback -19.5184 -1.50917 -3.5449
upperback -8.50856 -1.99347 1.83623
thorax 1.89928 -1.1275 3.54226
lowerneck -15.5339 11.0633 13.5421
upperneck 28.6781 14.4354 -8.52664
head 14.0556 6.55579 -3.12691
rclavicle -6.01091e-015 -6.79129e-015
rhumerus -16.2055 -23.1829 -54.5465
rradius 149.646
rwrist -38.0555
rhand -43.2959 -32.3959
rfingers 7.12502
rthumb -16.1433 -61.7436
lclavicle -6.01091e-015 -6.79129e-015
lhumerus -51.3934 12.206 60.3225
lradius 128.549
lwrist 33.1322
lhand -48.5596 -51.2765
lfingers 7.12502
lthumb -21.2061 -22.4164
rfemur -21.8021 20.2635 14.8
rtibia 26.2681
rfoot -15.1729 -19.9485
rtoes -14.0723
lfemur 0 0 0
ltibia 0
lfoot 0 0
ltoes 0
519
root 6.79685 15.6849 25.0324 56.6792 -87.1092 -40.7985
lowerback -19.5862 -1.47082 -3.51679
upperback -8.4265 -1.94058 1.85284
thorax 2.0177 -1.10253 3.55254
lowerneck -15.6605 10.9781 13.4024
upperneck 28.7771 14.3156 -8.45161
head 14.0878 6.49261 -3.09599
rclavicle -3.82428e-015 2.36367e-015
rhumerus -17.5416 -21.1613 -55.2558
rradius 149.518
rwrist -37.7029
rhand -42.7145 -33.1425
rfingers 7.12502
rthumb -15.5834 -62.5347
lclavicle -3.82428e-015 2.36367e-015
lhumerus -51.7376 11.0696 62.2122
lradius 127.09
lwrist 33.4599
lhand -48.7033 -51.2853
lfingers 7.12502
lthumb -21.344 -22.4407
rfemur -21.6553 20.2297 14.8962
rtibia 26.2347
rfoot -15.1784 -19.8582
rtoes -14.1031
lfemur 0 0 0
ltibia 0
lfoot 0 0
ltoes 0
520
root 6.79283 15.6827 25.0312 57.747 -87.1229 -41.9656
lowerback -19.6563 -1.42807 -3.49814
upperback -8.35041 -1.88113 1.87423
thorax 2.13059 -1.07406 3.57499
lowerneck -15.7667 10.8837 13.2139
upperneck 28.8615 14.1901 -8.35142
head 14.1016 6.42594 -3.0493
rclavicle 2.10122e-015 -1.24799e-014
rhumerus -18.927 -19.0425 -55.9962
rradius 149.353
rwrist -37.1449
rhand -42.1893 -33.7157
rfingers 7.12502
rthumb -15.0775 -63.1466
lclavicle 2.10122e-015 -1.24799e-014
lhumerus -52.0762 9.93431 64.0808
lradius 125.616
lwrist 33.8395
lhand -48.7309 -51.3521
lfingers 7.12502
lthumb -21.3706 -22.5106
rfemur -21.5227 20.2008 14.9812
rtibia 26.2065
rfoot -15.1887 -19.7688
rtoes -14.1163
lfemur 0 0 0
ltibia 0
lfoot 0 0
ltoes 0
521
root 6.78889 15.6807 25.0299 58.7236 -87.14 -43.0326
lowerback -19.7277 -1.38011 -3.47886
upperback -8.28093 -1.8153 1.88685
thorax 2.23612 -1.04258 3.58941
lowerneck -15.8629 10.7838 13.0024
upperneck 28.94 14.0555 -8.22483
head 14.1051 6.35681 -2.99053
rclavicle -4.65746e-015 -6.07536e-015
rhumerus -20.3787 -16.8292 -56.7968
rradius 149.151
rwrist -36.4279
rhand -41.7676 -34.058
rfingers 7.12502
rthumb -14.6713 -63.519
lclavicle -4.65746e-015 -6.07536e-015
lhumerus -52.4058 8.79429 65.8905
lradius 124.139
lwrist 34.2942
lhand -48.5874 -51.4236
lfingers 7.12502
lthumb -21.2328 -22.5665
rfemur -21.404 20.1758 15.0553
rtibia 26.185
rfoot -15.1983 -19.6894
rtoes -14.1284
lfemur 0 0 0
ltibia 0
lfoot 0 0
ltoes 0
522
root 6.78492 15.679 25.0284 59.6106 -87.1595 -43.9993
lowerback -19.7771 -1.30352 -3.38602
upperback -8.23884 -1.72474 1.82305
thorax 2.29558 -1.00086 3.48643
lowerneck -15.9518 10.678 12.8323
upperneck 29.0406 13.8763 -8.02172
head 14.1082 6.283 -2.91686
rclavicle -1.56116e-015 -1.11071e-014
rhumerus -21.9827 -14.5541 -57.7513
rradius 148.927
rwrist -35.588
rhand -41.4861 -34.1416
rfingers 7.12502
rthumb -14.4 -63.6221
lclavicle -1.56116e-015 -1.11071e-014
lhumerus -52.7339 7.56573 67.543
lradius 122.666
lwrist 34.7905
lhand -48.3246 -51.3445
lfingers 7.12502
lthumb -20.9802 -22.4592
rfemur -21.3008 20.1569 15.1177
rtibia 26.1715
rfoot -15.215 -19.6183
rtoes -14.1289
lfemur 0 0 0
ltibia 0
lfoot 0 0
ltoes 0
523
root 6.78082 15.6774 25.0268 60.3571 -87.1806 -44.8144
lowerback -19.803 -1.16089 -3.0815
upperback -8.22382 -1.58016 1.55913
thorax 2.30211 -0.938702 3.06158
lowerneck -16.0536 10.5741 12.8275
upperneck 29.1726 13.6072 -7.6919
head 14.1211 6.20496 -2.83541
rclavicle -1.4387e-014 -4.47266e-016
rhumerus -23.8113 -12.311 -59.0631
rradius 148.687
rwrist -34.619
rhand -41.3277 -33.9535
rfingers 7.12502
rthumb -14.2474 -63.4448
lclavicle -1.4387e-014 -4.47266e-016
lhumerus -53.0315 6.13238 68.8639
lradius 121.201
lwrist 35.3108
lhand -47.962 -51.0499
lfingers 7.12502
lthumb -20.6319 -22.1264
rfemur -21.2123 20.1183 15.171
rtibia 26.1655
rfoot -15.239 -19.5365
rtoes -14.1276
lfemur 0 0 0
ltibia 0
lfoot 0 0
ltoes 0
